<svg id="Capa_1" data-name="Capa 1" xmlns="http://www.w3.org/2000/svg" viewBox="0 0 395.25 187.5"><defs><style>.cls-1{fill:#ee786f;}.cls-2{fill:#ef766d;}.cls-3{fill:#fff;stroke:#000;stroke-miterlimit:10;}</style></defs><path class="cls-1" d="M199.54,118.47h137.9c2.78,0,4.72,0,4.58,3.84-.11,3.06-1.12,3.72-3.94,3.72-27.86-.09-55.71-.06-83.57-.06H61.16c-2,0-4.28.61-4.31-2.9,0-4.57-.25-4.57,4.42-4.57Z"/><path class="cls-2" d="M199.5,18H337.43c2.11,0,4.46-.74,4.57,3.05S340.31,25,337.46,25Q276.74,24.89,216,25q-77.22,0-154.42-.05c-1.82,0-4.45,1.15-4.73-2.48-.26-3.35.75-4.51,4.32-4.5Q130.35,18.06,199.5,18Z"/><path class="cls-3" d="M28.76,75.38c0-6.11.06-12.23,0-18.33,0-2.14.39-3,2.84-3.09,9.08-.14,9.07-.24,9.07,8.77,0,7.64,0,7.64,7.61,7.64,6.31,0,6.31,0,6.31-6.35,0-2.5.1-5,0-7.48-.1-2,.71-2.48,2.61-2.56,9.13-.39,9.13-.44,9.13,8.75,0,10.59-.06,21.2,0,31.79,0,2.35-.56,3.23-3.1,3.25-8.66.06-8.65.17-8.65-8.5,0-9.31,0-9.1-9.36-9.38-3.88-.12-5,1-4.64,4.77a92.69,92.69,0,0,1,.06,9.72c0,.75.27,1.88-.11,2.18-3,2.44-6.56.66-9.86,1.09-2.11.28-1.88-1.47-1.89-2.82Q28.74,85.1,28.76,75.38Z"/><path class="cls-3" d="M369.89,75.83c0,6.37-.06,12.74,0,19.11,0,2.08-.6,2.76-2.74,2.82-9,.28-9,.36-9-8.55,0-9.24,0-9.24-9.09-9.22-4.85,0-4.85,0-4.85,4.78v9.37c0,.74.29,1.78-.09,2.19-2.68,2.93-6.2.76-9.3,1.35-1.65.31-2.5-.44-2.49-2.28q.07-19.49,0-39c0-1.7.48-2.64,2.33-2.41a4.69,4.69,0,0,0,.75,0c8.8-.2,8.8-.2,8.78,8.64,0,7.71,0,7.77,7.54,7.68,7.08-.09,6.34,1.33,6.41-6.28V62.18c0-8.33,0-8.24,8.55-8.22,2.41,0,3.35.64,3.19,3.14-.19,3.11-.05,6.24-.05,9.36S369.9,72.71,369.89,75.83Z"/><path class="cls-3" d="M258.94,75.75c0-6.23.07-12.47,0-18.7,0-2.15.42-3.13,2.86-3.08q10.29.24,20.59,0c2.24,0,2.64.84,2.66,2.84.09,6.47.17,6.46-6.14,6.46h-3.74c-4.71,0-4.66.08-4.43,4.82.09,1.89.87,2.31,2.52,2.27,2.62-.08,5.25.11,7.86,0,2.31-.15,3,.74,3,3,.08,6.26.18,6.26-6,6.26a18.78,18.78,0,0,1-3,0c-3.35-.5-4.33.7-4.45,4.2-.13,4,1.22,5.06,4.85,4.58,1.59-.21,3.26.15,4.85-.07,3.65-.51,5.09.61,4.76,4.57-.4,4.84-.09,4.87-5.13,4.88-5.74,0-11.49-.14-17.22.07-2.87.1-4-.65-3.85-3.7C259.09,88,258.93,81.86,258.94,75.75Z"/><path class="cls-3" d="M311.78,98.58C299.64,98.43,293.27,93,291.49,81a31.3,31.3,0,0,1-.43-4.83c.09-16.17,11.56-25.37,27.37-22,7.64,1.64,8.48,3.71,4.28,10.34-.47.74-.81,1.19-1.7.78-.57-.26-1.15-.48-1.74-.69-10.3-3.67-15.93.22-16.21,11.19-.28,11.2,5.76,15.49,16.77,11.92,4-1.31,4-1.31,4,2.92,0,6,0,6.06-5.77,7.24A60.33,60.33,0,0,1,311.78,98.58Z"/><path class="cls-3" d="M230.26,80.5c0-4.61-.14-9.22.05-13.82.11-2.55-.83-3.36-3.2-3a19.09,19.09,0,0,1-2.62,0c-4.85,0-4.88,0-4.84-4.75,0-5.78-.63-4.85,5-4.88,8.23,0,16.46.12,24.68-.08,2.88-.07,3.87.86,3.44,3.57a4.7,4.7,0,0,0,0,.75c-.09,6.08.74,5.34-5.37,5.38-5.26,0-5.26,0-5.26,5.4,0,8.35-.09,16.7,0,25,.05,2.64-.49,3.72-3.45,3.68-8.45-.1-8.45,0-8.45-8.31v-9Z"/><path class="cls-3" d="M274.77,160.32c.64-2.57,1.22-4.7,1.68-6.85.26-1.18.51-2,2.05-2.06,1.73-.06,2.06.92,2.32,2.23a29.94,29.94,0,0,0,2,6.73c.5-2.26,1-4.51,1.48-6.78.32-1.58,1.07-2.53,2.8-2.08s.73,1.85.56,2.72c-.57,2.92-1.38,5.8-2,8.71-.36,1.62-.94,2.59-2.92,2.62-2.15,0-2.4-1.33-2.75-2.78-.43-1.77-.8-3.57-1.35-6.11-.65,2.71-1.17,4.62-1.54,6.56a2.4,2.4,0,0,1-2.72,2.31c-1.72,0-2.4-.89-2.75-2.37-.75-3.14-1.6-6.26-2.3-9.41-.18-.81-.9-2.07.82-2.28,1.22-.16,2.16,0,2.55,1.47C273.32,155.27,273.3,157.8,274.77,160.32Z"/><path class="cls-3" d="M225.17,158.57c0,1.37.05,2.74,0,4.11,0,1.15.45,2.64-1.55,2.78s-2.14-1.09-2.23-2.61c-.07-1.08.72-2.7-1.23-3s-3.46-.06-3.19,2.59c.13,1.24.54,2.94-1.67,3-2.45.1-2-1.72-2-3.14v-8.61c0-1.46.31-2.34,2.07-2.3s1.75,1,1.72,2.22c0,1.68-.21,3.2,2.39,3.13s2-1.69,2-3.07.36-2.32,2.1-2.27,1.69,1.1,1.68,2.28C225.16,155.32,225.16,156.94,225.17,158.57Z"/><path class="cls-3" d="M142.8,158.44v-1.13c0-6.47,0-6.46,6.34-5.89,1,.1,2,0,2.05,1.49s-.84,1.53-1.95,1.62-2.6-.71-2.56,1.14c0,1.5,1.49.94,2.37,1s1.67.18,1.73,1.41c.06,1.4-.65,1.65-1.83,1.7-.89,0-2.25-.48-2.36,1.05-.12,1.71,1.31,1.53,2.39,1.55,1.28,0,2.29.28,2.1,1.86s-1.35,1.18-2.31,1.24h-1.12c-4.76.07-4.76.07-4.84-4.82v-2.22Z"/><path class="cls-3" d="M186.12,158.17v-1.12c0-6.13,0-6.12,6.15-5.6,1,.08,2-.17,2.09,1.38,0,1.4-.72,1.57-1.85,1.67-.95.09-2.59-.64-2.54,1.2,0,1.53,1.49.92,2.35,1,1.19.06,1.88.41,1.82,1.74s-.91,1.24-1.8,1.35-2.53-.52-2.41,1.36,1.61,1.16,2.6,1.24,1.92.31,1.82,1.7c-.09,1.19-.84,1.39-1.78,1.4a25,25,0,0,0-3,0c-2.87.39-3.83-.88-3.49-3.61A28.69,28.69,0,0,0,186.12,158.17Z"/><path class="cls-3" d="M73.52,158.09V157c0-6.07,0-6.06,6.22-5.53,1,.08,2-.13,2.06,1.41s-.73,1.56-1.85,1.65-2.58-.64-2.54,1.2c0,1.55,1.49.88,2.34,1s1.66.3,1.7,1.46c0,1.4-.75,1.61-1.89,1.64-.89,0-2.18-.41-2.21,1.2,0,1.82,1.4,1.36,2.42,1.43s2,0,2,1.53-.91,1.56-2,1.55H79c-5.51.23-5.51.23-5.53-5.17Z"/><path class="cls-3" d="M317.64,158.28v-1.12c-.05-6.2.3-6.5,6.41-5.74.91.12,1.76.09,1.84,1.32s-.55,1.7-1.76,1.79c-1,.07-2.66-.62-2.61,1.14s1.73.83,2.68,1a1.36,1.36,0,0,1,1.28,1.42.17.17,0,0,0,0,.07c.07,1.09-.38,1.52-1.48,1.63s-2.6-.69-2.59,1.15,1.74,1.29,2.85,1.42,1.66.45,1.62,1.58-.68,1.38-1.67,1.56C318.43,166.59,317.61,165.71,317.64,158.28Z"/><path class="cls-3" d="M84.1,158.17v-3.72c0-1.24-.55-3.12,2-3s1.6,2,1.78,3.21a16.74,16.74,0,0,1,0,2.24c0,2.8-1,6.38,4.05,5.61.89-.13,1.26.6,1.25,1.46s-.36,1.47-1.27,1.49q-3.16.07-6.33,0c-1.39,0-1.49-1-1.49-2.08C84.1,161.64,84.1,159.91,84.1,158.17Z"/><path class="cls-3" d="M197,158.18v-4.83c0-1.12.3-1.86,1.65-1.9,1.51,0,1.95.67,1.91,2-.05,1.74.06,3.48-.05,5.2-.17,2.42.14,4.23,3.29,3.79,1.11-.15,2.36-.06,2.21,1.64-.13,1.4-1.2,1.29-2.2,1.38C196.91,166.08,196.92,166.09,197,158.18Z"/><path class="cls-3" d="M198.23,68.83c-1.57-8.13-6.93-12.65-15-14.17-6.08-1.15-12.21-.29-18.31-.68-2.61-.17-3.09.92-3,3.23.14,6.24.05,12.49,0,18.73,0,6,.13,12,0,18-.09,2.77.43,4.11,3.61,3.85,3.6-.29,7.24-.07,10.86-.06C194.55,97.8,201.21,84.26,198.23,68.83ZM176.64,88.18c-2.17.1-3.17-.38-3.12-2.82.13-6.36.09-12.72,0-19.08,0-2.09.72-2.8,2.81-2.84,7.13-.16,10.48,3.7,10.43,12.29C186.7,84.07,183.55,87.88,176.64,88.18Z"/><path class="cls-3" d="M146.7,81.38c-1.15-1.68-1.59-2.7.53-4.15,4.92-3.39,6-8.47,4.76-14-1.21-5.28-5.33-7.54-10.3-8.54-6.44-1.29-12.95-.46-19.43-.71-1.86-.07-1.93,1.15-1.93,2.46v39c0,1.84.88,2.61,2.51,2.26,3.06-.67,6.62,1.74,9.2-1.47.3-.39.07-1.22.07-1.84,0-3.12-.07-6.25,0-9.36,0-1.09-.76-2.65,1.1-3.11s2.43.79,3.14,2q3.38,5.83,6.78,11.64c.62,1.07,1.14,2.19,2.73,2.16,3.69-.06,7.38,0,11.76,0C153.75,91.86,150.29,86.58,146.7,81.38ZM134.89,73c-4.47.26-2.17-3.12-2.92-5,.9-1.76-1.77-5.39,3-5.12,3.86.22,5.57,1.6,5.5,5S138.5,72.82,134.89,73Z"/><path class="cls-3" d="M114.1,93.51q-4.5-13.85-9.1-27.67c-1.3-3.88-1.66-9.31-4.39-11.14-3-2-8.18-.6-12.42-.68h-.75a2.28,2.28,0,0,0-2.69,1.8s0,.07,0,.1Q78.38,75.68,71.9,95.39c-.66,2,0,2.39,1.78,2.34,2.62-.08,5.25-.11,7.86,0,1.81.09,2.65-.59,3.18-2.33,1.71-5.58,1.78-5.56,7.7-5.56a14.33,14.33,0,0,0,2.62,0c4.26-.83,6.64.81,6.93,5.19.15,2.32,1.5,2.89,3.55,2.72,1.12-.1,2.25,0,3.37,0h2.25C115.4,97.7,115.45,97.69,114.1,93.51ZM95.59,80.22c-7.22.48-7.19.56-5.32-6.44,1-3.71,1.88-7.44,3.06-12.08,1.55,6,2.84,11,4.17,16C98,79.43,97.52,80.09,95.59,80.22Z"/><path class="cls-3" d="M119.21,151.28c-4.34,0-6.65,2.5-6.65,7.15s2.45,7.23,6.62,7.27c4.38,0,6.89-2.69,6.84-7.43S123.64,151.25,119.21,151.28Zm.08,11.25c-2.62-.06-2.93-2.25-2.89-4.34s.51-3.91,3-3.78,2.54,2.26,2.8,3.88C122,160.44,121.75,162.58,119.29,162.53Z"/><path class="cls-3" d="M253,165.34l.23-.16a2.71,2.71,0,0,0,.21-.37c0-.06,0-.12,0-.18h0v0a.27.27,0,0,1,0-.09v-.1s0-.08,0-.13c-1.57-2.42-3.76-4.5-1.1-7.89,1.17-1.49-.21-3.62-2.26-4.36a9.89,9.89,0,0,0-7.52,0c-.14.07-.19.45-.19.68v11.19c0,1.39,1,1.51,2.06,1.53s1.53-.44,1.66-1.53-.68-2.45.73-3.41C249,162,249.11,166.49,253,165.34Zm-5.26-8h0c-1.33.11-1.69-.39-1.69-1.26s0-1.79,1.27-1.69a1.44,1.44,0,0,1,1.52,1.28A1.48,1.48,0,0,1,247.73,157.39Z"/><path class="cls-3" d="M315.4,165a.25.25,0,0,0,0-.07,2.17,2.17,0,0,0,.07-.24.48.48,0,0,1,0-.12s0-.06,0-.1c-1.42-2.54-4-4.47-1.32-7.87,1.22-1.55,0-3.79-2.39-4.63-1.95-.69-3.94-.41-5.93-.46-1.49,0-1.46,1-1.46,2v9.73c0,1.21.08,2.25,1.73,2.23,1.42,0,2-.58,2-2,0-.9-.41-2,.57-2.83,2.29,1.24,2.3,6.1,6.58,4.5Zm-6.29-7.53c-1.08-.06-1-.92-1-1.65s.29-1.47,1.3-1.29A1.39,1.39,0,0,1,310.6,156C310.45,157,310,157.49,309.11,157.43Z"/><path class="cls-3" d="M164.48,165.21a2.8,2.8,0,0,0,.2-.32.93.93,0,0,0,0-.13v-.26c-.31-.55-.57-1-.83-1.36-1.25-1.89-3-3.52-.63-6,1-1.12.62-3.21-.86-4.37-2.38-1.87-5.26-1.49-7.91-1.09-1.58.24-.79,2.1-.86,3.23a27.36,27.36,0,0,0,0,6c.24,1.56-1.43,4.22,1.56,4.51,3.28.32,1.62-2.59,2.17-4.07a3.92,3.92,0,0,1,.58-.76c2.09,1.52,2.3,6.07,6.52,4.64ZM159.81,156a1.34,1.34,0,0,1-1.25,1.43h-.12c-1,0-1.11-.75-1.09-1.52s.14-1.52,1.2-1.45a1.36,1.36,0,0,1,1.27,1.44S159.81,156,159.81,156Z"/><path class="cls-3" d="M109.3,152.61c-2.4-1.75-5.29-1.49-7.9-.9-1.55.36-.59,2.38-.77,3.65a21.45,21.45,0,0,0,0,3h0v4.84c0,1.61.41,2.32,2.08,2.31s1.73-1.14,1.62-2.27c-.16-1.85.46-2.69,2.44-2.76a3.9,3.9,0,0,0,3.82-3.44C110.91,155.3,110.72,153.66,109.3,152.61Zm-3.93,4.87c-1.13.08-1.06-.76-1.05-1.48s0-1.54,1.11-1.46a1.37,1.37,0,0,1,1.49,1.22v.07a1.46,1.46,0,0,1-1.25,1.64A1.51,1.51,0,0,1,105.37,157.48Z"/><path class="cls-3" d="M139.61,154.91c-1.4-3.14-4.26-3.48-7.65-3.45-2.79-.73-3.85.62-3.56,3.76.24,2.6.06,5.23.06,7.85,0,1.19.08,2.33,1.67,2.37,3.13.08,6.43.32,8.65-2.41A7.49,7.49,0,0,0,139.61,154.91Zm-6,7.29c-2.19-.11-1.32-1.85-1.39-3.17,0-.5,0-1,0-1.44,0-1.29-.77-3,1.54-3,2.15,0,2.8,1.72,2.8,3.68S135.94,162.32,133.61,162.2Z"/><path class="cls-3" d="M182.94,155c-1.37-3.14-4.2-3.54-7.72-3.6-3-.76-3.82.87-3.5,4.07.25,2.59.06,5.23.06,7.85,0,1,.05,2.09,1.46,2.1,3.11,0,6.39.41,8.67-2.34A7.36,7.36,0,0,0,182.94,155Zm-6,7.18,0,0c-2.47,0-1.1-1.83-1.32-2.95a12.75,12.75,0,0,0-.13-2.09c-.09-1.2-.49-2.39,1.39-2.5,2.17-.17,2.91,1.63,2.92,3.55S179.29,162.2,176.92,162.18Z"/><path class="cls-3" d="M239.93,162.69c-.85-3-2.05-5.84-2.83-8.83-.5-2-1.45-2.76-3.36-2.38-1.57-.23-2.55.16-3,1.88-.91,3.22-2.11,6.36-3.14,9.54-.28.87-1,2,.53,2.42,1,.24,2.17.47,3-.78,1.8-2.76,3.74-2.69,5.59,0a2.52,2.52,0,0,0,3.32.75C241.34,164.66,240.16,163.49,239.93,162.69Zm-5.19-3.11c-.06.19-1.45.35-1.67.07-1-1.24-.17-2.31.26-3.45.26-.34.72-.71,1.17.13A4.55,4.55,0,0,1,234.74,159.58Z"/><path class="cls-3" d="M301.71,162.64c-.85-3-2-5.84-2.83-8.83-.5-2-1.45-2.76-3.36-2.38-1.57-.23-2.55.16-3,1.88-.91,3.22-2.11,6.36-3.14,9.54-.28.87-1,2,.53,2.42,1,.24,2.17.47,3-.78,1.8-2.76,3.74-2.69,5.59,0a2.53,2.53,0,0,0,3.32.75C303.12,164.61,301.94,163.44,301.71,162.64Zm-5.19-3.11c-.06.19-1.45.35-1.67.07-1-1.24-.17-2.31.26-3.45.26-.34.72-.72,1.17.12A4.58,4.58,0,0,1,296.52,159.53Z"/><path class="cls-3" d="M267.25,156.8c-.74-4.14-3.84-6-9.55-5.3-4.06.52-1.3,3.83-2,5.73v.21a.68.68,0,0,0,0,.14c0,.16,0,.33,0,.49V160c0,5.79,1.31,6.73,7,5.06C266.17,164,268,160.78,267.25,156.8Zm-6.47,5.37c-2,0-1.54-1.3-1.41-2.45a10.55,10.55,0,0,0,0-2.24c0-1.26-.81-2.79,1.39-2.86s2.66,1.87,2.65,3.76S263,162.21,260.78,162.17Z"/></svg>